<svg width="1000" height="1000" viewBox="0 0 1000 1000" xmlns="http://www.w3.org/2000/svg"><defs/><path fill="#3f8631" transform="matrix(0.4726355357288136 0 0 0.4726355357288136 36.388148034711854 88.10626430948861)" d="M 485.37941156942 839.53279076258 C 485.37941156942 847.09909183526 479.2457126421 853.23279076258 471.67941156942 853.23279076258 C 464.11311049674 853.23279076258 457.97941156942 847.09909183526 457.97941156942 839.53279076258 C 457.97941156942 831.9664896899 464.11311049674 825.83279076258 471.67941156942 825.83279076258 C 479.2457126421 825.83279076258 485.37941156942 831.9664896899 485.37941156942 839.53279076258 Z"/><path fill="#3f8631" transform="matrix(0.4726355357288136 0 0 0.4726355357288136 36.388148034711854 88.10626430948861)" d="M 435.07941156942 839.53279076258 C 435.07941156942 847.09909183526 428.9457126421 853.23279076258 421.37941156942 853.23279076258 C 413.81311049674 853.23279076258 407.67941156942 847.09909183526 407.67941156942 839.53279076258 C 407.67941156942 831.9664896899 413.81311049674 825.83279076258 421.37941156942 825.83279076258 C 428.9457126421 825.83279076258 435.07941156942 831.9664896899 435.07941156942 839.53279076258 Z"/><path fill="#3f8631" transform="matrix(0.4726355357288136 0 0 0.4726355357288136 36.388148034711854 88.10626430948861)" d="M 384.77941156942 839.53279076258 C 384.77941156942 847.09909183526 378.6457126421 853.23279076258 371.07941156942 853.23279076258 C 363.51311049674 853.23279076258 357.37941156942 847.09909183526 357.37941156942 839.53279076258 C 357.37941156942 831.9664896899 363.51311049674 825.83279076258 371.07941156942 825.83279076258 C 378.6457126421 825.83279076258 384.77941156942 831.9664896899 384.77941156942 839.53279076258 Z"/><path fill="#ea2e38" transform="matrix(0.4726355357288136 0 0 0.4726355357288136 36.388148034711854 88.10626430948861)" d="M 602.37941156942 728.03279076258 C 602.37941156942 713.93279076258 590.97941156942 702.53279076258 576.87941156942 702.53279076258 L 265.87941156942 702.53279076258 C 251.77941156942 702.53279076258 240.37941156942 713.93279076258 240.37941156942 728.03279076258 L 240.37941156942 951.13279076258 C 240.37941156942 965.23279076258 251.77941156942 976.63279076258 265.87941156942 976.63279076258 L 291.37941156942 976.63279076258 L 291.37941156942 753.53279076258 L 551.37941156942 753.53279076258 L 551.37941156942 925.63279076258 L 337.77941156942 925.63279076258 L 291.47941156942 976.63279076258 L 544.47941156942 976.63279076258 L 602.47941156942 1040.43279076258 L 602.47941156942 728.03279076258 Z"/><path id="text" fill="#1c75ac" transform="matrix(1.1715342394569113 0 0 1.1715342394569113 275.49354469725523 84.01065133725666)" d="M 91.98810472075 386.8568287563 C 91.41210472075 386.2808287563 91.12410472075 385.4168287563 91.12410472075 384.2648287563 L 91.12410472075 331.8488287563 L 74.32410472075 331.8488287563 C 73.04410472075 331.8488287563 72.16410472075 331.5928287563 71.68410472075 331.0808287563 C 71.20410472075 330.5688287563 70.96410472075 329.7048287563 70.96410472075 328.4888287563 L 70.96410472075 325.8968287563 C 70.96410472075 324.6808287563 71.20410472075 323.8008287563 71.68410472075 323.2568287563 C 72.16410472075 322.7128287563 73.04410472075 322.4408287563 74.32410472075 322.4408287563 L 120.21210472075 322.4408287563 C 121.49210472075 322.4408287563 122.38810472075 322.7128287563 122.90010472075 323.2568287563 C 123.41210472075 323.8008287563 123.66810472075 324.6808287563 123.66810472075 325.8968287563 L 123.66810472075 328.4888287563 C 123.66810472075 329.7048287563 123.41210472075 330.5688287563 122.90010472075 331.0808287563 C 122.38810472075 331.5928287563 121.49210472075 331.8488287563 120.21210472075 331.8488287563 L 103.41210472075 331.8488287563 L 103.41210472075 384.2648287563 C 103.41210472075 385.4168287563 103.14010472075 386.2808287563 102.59610472075 386.8568287563 C 102.05210472075 387.4328287563 101.10810472075 387.7208287563 99.76410472075 387.7208287563 L 94.77210472075 387.7208287563 C 93.49210472075 387.7208287563 92.56410472075 387.4328287563 91.98810472075 386.8568287563 Z M 117.23610472075 386.2808287563 C 117.23610472075 385.8968287563 117.33210472075 385.4808287563 117.52410472075 385.0328287563 L 142.86810472075 324.9368287563 C 143.25210472075 323.9768287563 143.66810472075 323.3208287563 144.11610472075 322.9688287563 C 144.56410472075 322.6168287563 145.20410472075 322.4408287563 146.03610472075 322.4408287563 L 151.31610472075 322.4408287563 C 152.21210472075 322.4408287563 152.86810472075 322.6168287563 153.28410472075 322.9688287563 C 153.70010472075 323.3208287563 154.10010472075 323.9768287563 154.48410472075 324.9368287563 L 179.82810472075 385.0328287563 C 180.02010472075 385.4808287563 180.11610472075 385.8968287563 180.11610472075 386.2808287563 C 180.11610472075 387.2408287563 179.57210472075 387.7208287563 178.48410472075 387.7208287563 L 170.13210472075 387.7208287563 C 169.30010472075 387.7208287563 168.70810472075 387.6088287563 168.35610472075 387.3848287563 C 168.00410472075 387.1608287563 167.66810472075 386.6968287563 167.34810472075 385.9928287563 L 161.87610472075 372.5528287563 L 135.38010472075 372.5528287563 L 130.00410472075 385.9928287563 C 129.68410472075 386.6968287563 129.34810472075 387.1608287563 128.99610472075 387.3848287563 C 128.64410472075 387.6088287563 128.05210472075 387.7208287563 127.22010472075 387.7208287563 L 118.86810472075 387.7208287563 C 117.78010472075 387.7208287563 117.23610472075 387.2408287563 117.23610472075 386.2808287563 Z M 158.80410472075 363.6248287563 L 148.62810472075 338.4728287563 L 138.45210472075 363.6248287563 L 158.80410472075 363.6248287563 Z M 193.89210472075 387.1928287563 C 193.41210472075 386.8408287563 193.07610472075 386.2168287563 192.88410472075 385.3208287563 L 177.71610472075 324.7448287563 C 177.65210472075 324.5528287563 177.62010472075 324.2648287563 177.62010472075 323.8808287563 C 177.62010472075 322.9208287563 178.22810472075 322.4408287563 179.44410472075 322.4408287563 L 187.22010472075 322.4408287563 C 188.18010472075 322.4408287563 188.85210472075 322.6008287563 189.23610472075 322.9208287563 C 189.62010472075 323.2408287563 189.87610472075 323.7528287563 190.00410472075 324.4568287563 L 199.60410472075 366.6968287563 L 211.12410472075 329.4488287563 C 211.38010472075 328.6808287563 211.68410472075 328.1528287563 212.03610472075 327.8648287563 C 212.38810472075 327.5768287563 212.98010472075 327.4328287563 213.81210472075 327.4328287563 L 218.22810472075 327.4328287563 C 219.06010472075 327.4328287563 219.65210472075 327.5768287563 220.00410472075 327.8648287563 C 220.35610472075 328.1528287563 220.66010472075 328.6808287563 220.91610472075 329.4488287563 L 232.53210472075 366.6968287563 L 242.03610472075 324.4568287563 C 242.16410472075 323.7528287563 242.43610472075 323.2408287563 242.85210472075 322.9208287563 C 243.26810472075 322.6008287563 243.92410472075 322.4408287563 244.82010472075 322.4408287563 L 252.69210472075 322.4408287563 C 253.90810472075 322.4408287563 254.51610472075 322.9208287563 254.51610472075 323.8808287563 C 254.51610472075 324.2648287563 254.48410472075 324.5528287563 254.42010472075 324.7448287563 L 239.15610472075 385.3208287563 C 238.90010472075 386.2168287563 238.53210472075 386.8408287563 238.05210472075 387.1928287563 C 237.57210472075 387.5448287563 236.88410472075 387.7208287563 235.98810472075 387.7208287563 L 230.80410472075 387.7208287563 C 229.90810472075 387.7208287563 229.22010472075 387.5448287563 228.74010472075 387.1928287563 C 228.26010472075 386.8408287563 227.89210472075 386.2168287563 227.63610472075 385.3208287563 L 216.02010472075 346.9208287563 L 204.50010472075 385.3208287563 C 204.24410472075 386.2168287563 203.87610472075 386.8408287563 203.39610472075 387.1928287563 C 202.91610472075 387.5448287563 202.22810472075 387.7208287563 201.33210472075 387.7208287563 L 196.05210472075 387.7208287563 C 195.09210472075 387.7208287563 194.37210472075 387.5448287563 193.89210472075 387.1928287563 Z M 252.02010472075 386.2808287563 C 252.02010472075 385.8968287563 252.11610472075 385.4808287563 252.30810472075 385.0328287563 L 277.65210472075 324.9368287563 C 278.03610472075 323.9768287563 278.45210472075 323.3208287563 278.90010472075 322.9688287563 C 279.34810472075 322.6168287563 279.98810472075 322.4408287563 280.82010472075 322.4408287563 L 286.10010472075 322.4408287563 C 286.99610472075 322.4408287563 287.65210472075 322.6168287563 288.06810472075 322.9688287563 C 288.48410472075 323.3208287563 288.88410472075 323.9768287563 289.26810472075 324.9368287563 L 314.61210472075 385.0328287563 C 314.80410472075 385.4808287563 314.90010472075 385.8968287563 314.90010472075 386.2808287563 C 314.90010472075 387.2408287563 314.35610472075 387.7208287563 313.26810472075 387.7208287563 L 304.91610472075 387.7208287563 C 304.08410472075 387.7208287563 303.49210472075 387.6088287563 303.14010472075 387.3848287563 C 302.78810472075 387.1608287563 302.45210472075 386.6968287563 302.13210472075 385.9928287563 L 296.66010472075 372.5528287563 L 270.16410472075 372.5528287563 L 264.78810472075 385.9928287563 C 264.46810472075 386.6968287563 264.13210472075 387.1608287563 263.78010472075 387.3848287563 C 263.42810472075 387.6088287563 262.83610472075 387.7208287563 262.00410472075 387.7208287563 L 253.65210472075 387.7208287563 C 252.56410472075 387.7208287563 252.02010472075 387.2408287563 252.02010472075 386.2808287563 Z M 293.58810472075 363.6248287563 L 283.41210472075 338.4728287563 L 273.23610472075 363.6248287563 L 293.58810472075 363.6248287563 Z M 329.92410472075 387.6728287563 C 325.54010472075 386.6808287563 322.03610472075 385.2888287563 319.41210472075 383.4968287563 C 318.58010472075 382.9208287563 318.16410472075 382.4088287563 318.16410472075 381.9608287563 C 318.16410472075 381.5128287563 318.29210472075 381.1288287563 318.54810472075 380.8088287563 L 321.71610472075 375.8168287563 C 322.10010472075 375.2408287563 322.45210472075 374.9528287563 322.77210472075 374.9528287563 C 323.09210472075 374.9528287563 323.50810472075 375.1128287563 324.02010472075 375.4328287563 C 326.38810472075 376.8408287563 329.14010472075 377.9768287563 332.27610472075 378.8408287563 C 335.41210472075 379.7048287563 338.58010472075 380.1368287563 341.78010472075 380.1368287563 C 346.13210472075 380.1368287563 349.41210472075 379.4168287563 351.62010472075 377.9768287563 C 353.82810472075 376.5368287563 354.93210472075 374.2168287563 354.93210472075 371.0168287563 C 354.93210472075 369.0968287563 354.51610472075 367.5608287563 353.68410472075 366.4088287563 C 352.85210472075 365.2568287563 351.63610472075 364.2648287563 350.03610472075 363.4328287563 C 348.43610472075 362.6008287563 345.84410472075 361.4808287563 342.26010472075 360.0728287563 L 340.05210472075 359.2088287563 C 335.89210472075 357.5448287563 332.45210472075 355.9448287563 329.73210472075 354.4088287563 C 327.01210472075 352.8728287563 324.75610472075 350.8568287563 322.96410472075 348.3608287563 C 321.17210472075 345.8648287563 320.27610472075 342.8248287563 320.27610472075 339.2408287563 C 320.27610472075 333.4168287563 322.50010472075 328.9208287563 326.94810472075 325.7528287563 C 331.39610472075 322.5848287563 337.23610472075 321.0008287563 344.46810472075 321.0008287563 C 348.88410472075 321.0008287563 352.70810472075 321.4168287563 355.94010472075 322.2488287563 C 359.17210472075 323.0808287563 361.97210472075 324.3608287563 364.34010472075 326.0888287563 C 365.10810472075 326.6648287563 365.49210472075 327.2088287563 365.49210472075 327.7208287563 C 365.49210472075 328.1048287563 365.36410472075 328.4568287563 365.10810472075 328.7768287563 L 362.03610472075 333.7688287563 C 361.65210472075 334.3448287563 361.33210472075 334.6328287563 361.07610472075 334.6328287563 C 360.82010472075 334.6328287563 360.40410472075 334.4408287563 359.82810472075 334.0568287563 C 355.73210472075 331.4328287563 350.64410472075 330.1208287563 344.56410472075 330.1208287563 C 340.53210472075 330.1208287563 337.49210472075 330.8568287563 335.44410472075 332.3288287563 C 333.39610472075 333.8008287563 332.37210472075 336.1368287563 332.37210472075 339.3368287563 C 332.37210472075 341.3208287563 332.80410472075 342.9048287563 333.66810472075 344.0888287563 C 334.53210472075 345.2728287563 335.79610472075 346.2808287563 337.46010472075 347.1128287563 C 339.12410472075 347.9448287563 341.81210472075 349.0648287563 345.52410472075 350.4728287563 L 347.92410472075 351.4328287563 C 352.59610472075 353.2888287563 356.24410472075 355.0008287563 358.86810472075 356.5688287563 C 361.49210472075 358.1368287563 363.52410472075 360.0888287563 364.96410472075 362.4248287563 C 366.40410472075 364.7608287563 367.12410472075 367.7528287563 367.12410472075 371.4008287563 C 367.12410472075 376.9048287563 365.06010472075 381.2408287563 360.93210472075 384.4088287563 C 356.80410472075 387.5768287563 350.93210472075 389.1608287563 343.31610472075 389.1608287563 C 338.77210472075 389.1608287563 334.30810472075 388.6648287563 329.92410472075 387.6728287563 Z M 389.97210472075 386.2328287563 C 385.55610472075 384.2808287563 382.13210472075 381.4488287563 379.70010472075 377.7368287563 C 377.26810472075 374.0248287563 376.05210472075 369.6728287563 376.05210472075 364.6808287563 L 376.05210472075 325.9928287563 C 376.05210472075 324.7768287563 376.32410472075 323.8808287563 376.86810472075 323.3048287563 C 377.41210472075 322.7288287563 378.32410472075 322.4408287563 379.60410472075 322.4408287563 L 384.69210472075 322.4408287563 C 385.97210472075 322.4408287563 386.90010472075 322.7288287563 387.47610472075 323.3048287563 C 388.05210472075 323.8808287563 388.34010472075 324.7768287563 388.34010472075 325.9928287563 L 388.34010472075 364.9688287563 C 388.34010472075 369.9608287563 389.79610472075 373.7368287563 392.70810472075 376.2968287563 C 395.62010472075 378.8568287563 399.79610472075 380.1368287563 405.23610472075 380.1368287563 C 410.61210472075 380.1368287563 414.75610472075 378.8568287563 417.66810472075 376.2968287563 C 420.58010472075 373.7368287563 422.03610472075 369.9608287563 422.03610472075 364.9688287563 L 422.03610472075 325.9928287563 C 422.03610472075 324.7768287563 422.32410472075 323.8808287563 422.90010472075 323.3048287563 C 423.47610472075 322.7288287563 424.40410472075 322.4408287563 425.68410472075 322.4408287563 L 430.67610472075 322.4408287563 C 433.17210472075 322.4408287563 434.42010472075 323.6248287563 434.42010472075 325.9928287563 L 434.42010472075 364.6808287563 C 434.42010472075 369.6728287563 433.18810472075 374.0088287563 430.72410472075 377.6888287563 C 428.26010472075 381.3688287563 424.82010472075 384.2008287563 420.40410472075 386.1848287563 C 415.98810472075 388.1688287563 410.93210472075 389.1608287563 405.23610472075 389.1608287563 C 399.47610472075 389.1608287563 394.38810472075 388.1848287563 389.97210472075 386.2328287563 Z M 446.08410472075 386.8568287563 C 445.54010472075 386.2808287563 445.26810472075 385.4168287563 445.26810472075 384.2648287563 L 445.26810472075 325.9928287563 C 445.26810472075 324.7768287563 445.54010472075 323.8808287563 446.08410472075 323.3048287563 C 446.62810472075 322.7288287563 447.54010472075 322.4408287563 448.82010472075 322.4408287563 L 453.90810472075 322.4408287563 C 455.18810472075 322.4408287563 456.11610472075 322.7288287563 456.69210472075 323.3048287563 C 457.26810472075 323.8808287563 457.55610472075 324.7768287563 457.55610472075 325.9928287563 L 457.55610472075 378.4088287563 L 486.93210472075 378.4088287563 C 488.21210472075 378.4088287563 489.10810472075 378.6808287563 489.62010472075 379.2248287563 C 490.13210472075 379.7688287563 490.38810472075 380.6488287563 490.38810472075 381.8648287563 L 490.38810472075 384.4568287563 C 490.38810472075 385.6088287563 490.13210472075 386.4408287563 489.62010472075 386.9528287563 C 489.10810472075 387.4648287563 488.21210472075 387.7208287563 486.93210472075 387.7208287563 L 448.82010472075 387.7208287563 C 447.54010472075 387.7208287563 446.62810472075 387.4328287563 446.08410472075 386.8568287563 Z"/></svg>